<svg width="2550" height="1084" viewBox="0 0 2550 1084" fill="none" xmlns="http://www.w3.org/2000/svg">
<rect width="1000" height="1000" rx="300" fill="url(#paint0_linear_366_9)"/>
<g filter="url(#filter0_d_366_9)">
<path d="M744.392 385.228C759.389 378.185 777.411 384.598 782.922 400.223C803.073 457.358 805.527 519.511 789.564 578.439C770.975 647.06 728.621 706.85 670.052 747.148C611.483 787.447 540.505 805.637 469.773 798.473C399.041 791.31 333.151 759.26 283.85 708.037C234.55 656.814 205.043 589.747 200.589 518.792C196.136 447.838 217.026 377.608 259.534 320.622C302.043 263.637 363.408 223.6 432.69 207.649C492.186 193.95 554.199 198.779 610.522 221.1C625.925 227.204 631.644 245.459 624.033 260.176V260.176C616.422 274.892 598.363 280.457 582.813 274.739C539.265 258.73 491.783 255.613 446.152 266.119C390.727 278.88 341.635 310.91 307.628 356.498C273.62 402.086 256.909 458.27 260.471 515.034C264.034 571.797 287.64 625.451 327.08 666.43C366.521 707.408 419.233 733.048 475.818 738.779C532.404 744.509 589.186 729.958 636.042 697.719C682.897 665.48 716.78 617.648 731.651 562.751C743.894 517.555 742.595 469.989 728.262 425.861C723.144 410.103 729.395 392.271 744.392 385.228V385.228Z" fill="white"/>
</g>
<g filter="url(#filter1_d_366_9)">
<path d="M632 500.5C632 573.125 573.125 632 500.5 632C427.875 632 369 573.125 369 500.5C369 427.875 427.875 369 500.5 369C573.125 369 632 427.875 632 500.5ZM395.3 500.5C395.3 558.6 442.4 605.7 500.5 605.7C558.6 605.7 605.7 558.6 605.7 500.5C605.7 442.4 558.6 395.3 500.5 395.3C442.4 395.3 395.3 442.4 395.3 500.5Z" fill="white"/>
<path d="M632 500.5C632 573.125 573.125 632 500.5 632C427.875 632 369 573.125 369 500.5C369 427.875 427.875 369 500.5 369C573.125 369 632 427.875 632 500.5ZM395.3 500.5C395.3 558.6 442.4 605.7 500.5 605.7C558.6 605.7 605.7 558.6 605.7 500.5C605.7 442.4 558.6 395.3 500.5 395.3C442.4 395.3 395.3 442.4 395.3 500.5Z" stroke="white" stroke-width="25"/>
</g>
<g filter="url(#filter2_d_366_9)">
<path d="M725.792 351.986C739.652 342.907 743.639 324.199 733.222 311.315C723.996 299.905 713.946 289.187 703.151 279.247C690.963 268.024 672.037 270.801 662.087 284.049V284.049C652.137 297.297 654.967 315.979 666.871 327.504C672.428 332.884 677.722 338.53 682.735 344.421C693.471 357.041 711.933 361.065 725.792 351.986V351.986Z" fill="white"/>
</g>
<path d="M1528.55 684.49C1520.37 698.033 1511.69 710.81 1502.49 722.82C1493.29 734.574 1483.58 744.924 1473.36 753.867C1463.39 762.555 1453.04 769.327 1442.31 774.182C1431.58 779.293 1420.59 781.848 1409.34 781.848C1403.72 781.848 1397.72 780.698 1391.33 778.398C1385.2 776.099 1379.45 772.266 1374.08 766.899C1368.97 761.789 1364.63 754.889 1361.05 746.201C1357.73 737.513 1356.07 726.653 1356.07 713.621V271.675C1338.43 273.975 1321.7 278.958 1305.85 286.624C1290.27 294.29 1276.59 304.766 1264.84 318.054C1253.34 331.342 1244.14 347.441 1237.24 366.35C1230.6 385.26 1227.28 407.108 1227.28 431.895C1227.28 447.738 1228.94 462.048 1232.26 474.824C1235.58 487.345 1239.54 498.078 1244.14 507.021C1248.74 515.71 1253.34 522.481 1257.94 527.336C1262.54 532.192 1266.12 534.619 1268.67 534.619C1270.97 534.619 1273.15 534.108 1275.19 533.086C1277.23 532.064 1279.28 531.553 1281.32 531.553C1285.41 531.553 1287.46 534.747 1287.46 541.135C1287.46 549.312 1285.54 557.234 1281.71 564.9C1278.13 572.31 1273.53 578.443 1267.91 583.298C1262.28 587.898 1256.15 590.837 1249.51 592.114C1242.86 593.392 1236.73 591.986 1231.11 587.898C1224.21 583.298 1216.8 576.271 1208.88 566.816C1201.21 557.362 1194.06 545.99 1187.41 532.703C1181.03 519.159 1175.66 503.955 1171.31 487.09C1167.23 470.225 1165.18 451.826 1165.18 431.895C1165.18 404.297 1168.5 379.638 1175.15 357.917C1181.79 335.942 1190.61 316.777 1201.6 300.422C1212.84 284.068 1225.87 270.142 1240.69 258.643C1255.51 247.144 1271.1 237.817 1287.46 230.662C1303.81 223.507 1320.42 218.396 1337.28 215.33C1354.15 212.008 1370.25 210.347 1385.58 210.347C1389.67 210.347 1393.63 211.241 1397.46 213.03C1401.3 214.563 1404.62 216.863 1407.43 219.929C1410.24 222.74 1412.54 226.19 1414.33 230.278C1416.12 234.367 1417.01 238.711 1417.01 243.311V709.021C1417.01 714.132 1417.78 717.326 1419.31 718.604C1421.1 719.626 1422.76 720.137 1424.29 720.137C1428.13 720.137 1433.36 717.454 1440.01 712.087C1446.65 706.466 1453.81 699.183 1461.47 690.239C1469.4 681.04 1477.32 670.563 1485.24 658.809C1493.16 646.799 1500.31 634.405 1506.7 621.628C1513.09 608.852 1518.33 596.075 1522.42 583.298C1526.51 570.522 1528.55 558.512 1528.55 547.268V249.06C1528.55 241.65 1528.04 236.283 1527.02 232.961C1526 229.639 1525.48 226.573 1525.48 223.762C1525.48 219.929 1527.4 216.735 1531.23 214.18C1535.32 211.624 1540.18 210.347 1545.8 210.347C1558.83 210.347 1569.44 213.796 1577.61 220.696C1585.79 227.34 1589.88 235.517 1589.88 245.227V585.598C1589.88 611.407 1590.01 633.766 1590.26 652.676C1590.77 671.33 1591.41 687.428 1592.18 700.972C1592.95 714.259 1593.71 725.503 1594.48 734.702C1595.25 743.646 1596.01 751.312 1596.78 757.7C1598.31 760 1599.08 761.789 1599.08 763.066C1599.08 765.622 1597.8 768.049 1595.25 770.349C1592.69 772.649 1589.5 774.565 1585.66 776.099C1581.83 777.887 1577.49 779.293 1572.63 780.315C1568.03 781.337 1563.56 781.848 1559.22 781.848C1552.32 781.848 1546.95 779.804 1543.12 775.715C1539.28 771.882 1536.35 766.005 1534.3 758.083C1532.51 749.906 1531.23 739.813 1530.47 727.803C1529.7 715.793 1529.06 701.866 1528.55 686.023V684.49ZM1662.32 498.589C1662.32 491.178 1661.68 485.812 1660.41 482.49C1659.38 479.168 1658.87 476.102 1658.87 473.291C1658.87 469.458 1660.92 466.392 1665.01 464.092C1669.09 461.536 1673.95 460.259 1679.57 460.259C1692.6 460.259 1702.83 463.708 1710.24 470.608C1717.9 477.252 1721.73 485.301 1721.73 494.756V530.02C1727.1 519.032 1732.85 508.81 1738.98 499.355C1745.37 489.901 1752.14 481.724 1759.3 474.824C1766.71 467.669 1774.5 462.175 1782.68 458.342C1791.11 454.254 1800.18 452.209 1809.89 452.209C1822.93 452.209 1833.66 454.637 1842.09 459.492C1850.52 464.347 1857.17 470.608 1862.02 478.274C1866.88 485.94 1870.2 494.5 1871.99 503.955C1874.03 513.41 1875.06 522.609 1875.06 531.553V694.072C1875.06 695.861 1875.18 698.8 1875.44 702.888C1875.69 706.721 1876.46 710.682 1877.74 714.771C1879.02 718.859 1880.93 722.437 1883.49 725.503C1886.3 728.569 1890.26 730.103 1895.37 730.103C1903.29 730.103 1910.06 727.292 1915.69 721.67C1921.56 716.048 1926.55 709.021 1930.63 700.588C1934.98 692.156 1938.43 683.084 1940.98 673.374C1943.79 663.408 1946.09 654.081 1947.88 645.393C1949.42 637.216 1951.97 631.339 1955.55 627.761C1959.13 623.928 1962.83 622.012 1966.66 622.012C1969.73 622.012 1972.92 623.034 1976.25 625.078C1979.57 626.867 1982.51 629.294 1985.06 632.361C1987.87 635.427 1990.05 638.877 1991.58 642.71C1993.37 646.543 1994.26 650.376 1994.26 654.209C1994.26 654.72 1994.26 655.359 1994.26 656.125C1994.26 656.892 1994.01 658.042 1993.5 659.575C1990.17 672.607 1985.57 686.278 1979.7 700.588C1974.07 714.898 1966.66 728.058 1957.46 740.068C1948.52 752.078 1937.79 762.044 1925.27 769.966C1912.75 777.887 1898.05 781.848 1881.19 781.848C1870.71 781.848 1861.38 779.804 1853.21 775.715C1845.29 771.882 1838.39 766.644 1832.51 760C1826.89 753.356 1822.54 745.562 1819.48 736.619C1816.67 727.675 1815.26 718.22 1815.26 708.254V548.801C1815.26 542.668 1815.13 536.919 1814.88 531.553C1814.62 526.187 1813.85 521.459 1812.58 517.371C1811.56 513.282 1809.89 510.088 1807.59 507.788C1805.55 505.233 1802.61 503.955 1798.78 503.955C1793.16 503.955 1786.26 507.788 1778.08 515.454C1769.9 523.12 1761.85 533.086 1753.93 545.352C1746.01 557.617 1738.98 571.544 1732.85 587.131C1726.97 602.463 1723.27 617.923 1721.73 633.511V748.118C1721.73 751.951 1721.61 755.911 1721.35 760C1721.35 763.833 1720.58 767.283 1719.05 770.349C1717.77 773.671 1715.6 776.354 1712.54 778.398C1709.72 780.698 1705.51 781.848 1699.89 781.848C1696.05 781.848 1691.84 781.337 1687.24 780.315C1682.89 779.548 1678.81 777.887 1674.97 775.332C1671.39 773.032 1668.33 769.583 1665.77 764.983C1663.47 760.639 1662.32 754.762 1662.32 747.351V498.589ZM1987.36 382.449C1980.97 382.449 1974.84 381.171 1968.96 378.616C1963.34 376.06 1958.36 372.611 1954.02 368.267C1949.93 363.923 1946.6 358.94 1944.05 353.318C1941.49 347.441 1940.22 341.18 1940.22 334.536C1940.22 327.637 1941.49 321.248 1944.05 315.371C1946.6 309.494 1949.93 304.511 1954.02 300.422C1958.36 296.078 1963.34 292.756 1968.96 290.457C1974.84 287.901 1980.97 286.624 1987.36 286.624C1994.26 286.624 2000.65 287.901 2006.53 290.457C2012.4 292.756 2017.39 296.078 2021.48 300.422C2025.82 304.511 2029.14 309.494 2031.44 315.371C2034 321.248 2035.27 327.637 2035.27 334.536C2035.27 341.18 2034 347.441 2031.44 353.318C2029.14 358.94 2025.82 363.923 2021.48 368.267C2017.39 372.611 2012.4 376.06 2006.53 378.616C2000.65 381.171 1994.26 382.449 1987.36 382.449ZM2005.38 694.072C2005.38 695.861 2005.51 698.8 2005.76 702.888C2006.02 706.721 2006.78 710.682 2008.06 714.771C2009.34 718.859 2011.38 722.437 2014.19 725.503C2017 728.569 2020.97 730.103 2026.08 730.103C2033.74 730.103 2040.39 727.292 2046.01 721.67C2051.88 716.048 2056.87 709.021 2060.96 700.588C2065.3 692.156 2068.88 683.084 2071.69 673.374C2074.5 663.408 2076.8 654.081 2078.59 645.393C2080.12 637.472 2082.42 631.722 2085.49 628.145C2088.81 624.567 2092.26 622.651 2095.84 622.395C2099.67 621.884 2103.37 622.778 2106.95 625.078C2110.79 627.378 2114.11 630.444 2116.92 634.277C2119.98 637.855 2122.16 641.943 2123.43 646.543C2124.97 651.143 2125.22 655.487 2124.2 659.575C2120.62 672.607 2115.9 686.278 2110.02 700.588C2104.4 714.898 2097.11 728.058 2088.17 740.068C2079.23 752.078 2068.49 762.044 2055.97 769.966C2043.45 777.887 2028.76 781.848 2011.89 781.848C2001.42 781.848 1992.09 779.804 1983.91 775.715C1975.74 771.882 1968.84 766.644 1963.21 760C1957.59 753.356 1953.25 745.562 1950.18 736.619C1947.37 727.675 1945.97 718.22 1945.97 708.254V498.589C1945.97 491.178 1945.33 485.812 1944.05 482.49C1943.03 479.168 1942.52 476.102 1942.52 473.291C1942.52 469.458 1944.56 466.392 1948.65 464.092C1952.74 461.536 1957.59 460.259 1963.21 460.259C1976.25 460.259 1986.47 463.708 1993.88 470.608C2001.54 477.252 2005.38 485.301 2005.38 494.756V694.072ZM2010.74 390.881C2016.62 391.392 2023.14 391.776 2030.29 392.031C2036.42 392.542 2043.84 392.926 2052.52 393.181C2061.21 393.181 2070.92 393.309 2081.65 393.564V260.559C2081.65 254.937 2081.14 250.465 2080.12 247.144C2079.35 243.822 2078.46 241.266 2077.44 239.478C2076.67 237.433 2075.78 235.9 2074.75 234.878C2073.99 233.6 2073.6 232.323 2073.6 231.045C2073.6 229.512 2074.37 228.234 2075.9 227.212C2077.44 226.19 2079.48 225.295 2082.04 224.529C2084.59 223.762 2087.28 223.251 2090.09 222.996C2093.15 222.485 2096.09 222.229 2098.9 222.229C2111.94 222.229 2122.16 225.679 2129.57 232.578C2137.23 239.222 2141.07 247.271 2141.07 256.726V394.331C2165.09 394.331 2190.38 394.076 2216.96 393.564C2243.79 393.053 2270.62 392.159 2297.45 390.881C2301.03 387.048 2303.84 385.643 2305.89 386.665C2308.19 387.687 2309.59 390.115 2310.1 393.948C2310.87 397.781 2311 402.508 2310.48 408.13C2309.97 413.752 2308.95 419.246 2307.42 424.612C2305.89 429.722 2303.71 434.194 2300.9 438.027C2298.35 441.86 2295.41 443.777 2292.09 443.777C2260.66 444.543 2232.8 445.055 2208.53 445.31C2184.51 445.31 2162.02 445.31 2141.07 445.31V694.072C2141.07 706.849 2143.49 716.048 2148.35 721.67C2153.2 727.292 2159.72 730.103 2167.9 730.103C2175.82 730.103 2182.59 727.292 2188.21 721.67C2194.09 716.048 2199.07 709.021 2203.16 700.588C2207.5 692.156 2210.95 683.084 2213.51 673.374C2216.32 663.408 2218.62 654.081 2220.41 645.393C2221.94 637.216 2224.5 631.339 2228.08 627.761C2231.65 623.928 2235.36 622.012 2239.19 622.012C2242.26 622.012 2245.45 623.034 2248.77 625.078C2252.1 626.867 2255.03 629.294 2257.59 632.361C2260.4 635.427 2262.57 638.877 2264.11 642.71C2265.89 646.543 2266.79 650.376 2266.79 654.209C2266.79 654.72 2266.79 655.359 2266.79 656.125C2266.79 656.892 2266.53 658.042 2266.02 659.575C2262.7 672.607 2258.1 686.278 2252.22 700.588C2246.6 714.898 2239.19 728.058 2229.99 740.068C2221.05 752.078 2210.32 762.044 2197.79 769.966C2185.27 777.887 2170.58 781.848 2153.71 781.848C2143.24 781.848 2133.53 780.187 2124.58 776.865C2115.9 773.799 2108.36 768.688 2101.97 761.533C2095.58 754.634 2090.6 745.69 2087.02 734.702C2083.44 723.714 2081.65 710.426 2081.65 694.839V445.31C2072.97 445.31 2065.17 445.31 2058.27 445.31C2051.63 445.055 2046.01 444.799 2041.41 444.543C2036.04 444.288 2031.31 444.032 2027.23 443.777C2021.09 443.777 2015.73 441.094 2011.13 435.728C2006.27 430.106 2002.95 423.973 2001.16 417.329C1999.12 410.685 1998.86 404.68 2000.39 399.314C2001.67 393.692 2005.12 390.881 2010.74 390.881ZM2502.9 645.393C2505.2 637.216 2507.88 631.339 2510.95 627.761C2514.02 623.928 2517.6 622.012 2521.68 622.012C2524.75 622.012 2527.94 623.034 2531.27 625.078C2534.59 626.867 2537.53 629.294 2540.08 632.361C2542.89 635.427 2545.06 638.877 2546.6 642.71C2548.39 646.543 2549.28 650.376 2549.28 654.209C2549.28 654.72 2549.28 655.742 2549.28 657.275C2549.28 658.809 2549.03 660.342 2548.51 661.875C2541.87 684.618 2534.08 704.805 2525.13 722.437C2516.45 739.813 2506.99 755.4 2496.77 769.199C2486.8 782.998 2476.45 795.264 2465.72 805.996C2454.99 816.984 2444.26 827.078 2433.52 836.277V971.965C2433.52 992.664 2431.1 1010.04 2426.24 1024.09C2421.64 1038.4 2415.51 1049.9 2407.84 1058.59C2400.18 1067.53 2391.49 1073.92 2381.78 1077.76C2372.07 1081.59 2362.23 1083.51 2352.26 1083.51C2341.28 1083.51 2331.18 1081.08 2321.98 1076.22C2312.78 1071.62 2304.74 1065.24 2297.84 1057.06C2291.19 1048.88 2285.95 1039.3 2282.12 1028.31C2278.54 1017.32 2276.75 1005.57 2276.75 993.047C2276.75 973.115 2279.31 955.483 2284.42 940.151C2289.79 924.819 2296.94 910.765 2305.89 897.988C2314.83 885.212 2325.18 873.201 2336.93 861.958C2348.69 850.97 2361.08 839.727 2374.11 828.228V728.569C2364.66 744.412 2353.67 757.317 2341.15 767.283C2328.63 777.504 2313.93 782.615 2297.07 782.615C2284.04 782.615 2272.28 779.932 2261.81 774.565C2251.58 769.199 2242.9 761.661 2235.74 751.951C2228.59 741.985 2223.09 730.103 2219.26 716.304C2215.68 702.249 2213.89 686.662 2213.89 669.541C2213.89 648.843 2215.3 628.017 2218.11 607.063C2221.18 586.109 2224.5 567.2 2228.08 550.334C2232.16 530.658 2236.89 511.621 2242.26 493.223C2243.53 489.901 2244.43 486.579 2244.94 483.257C2245.71 479.679 2247.24 476.485 2249.54 473.674C2251.84 470.863 2255.42 468.564 2260.27 466.775C2265.38 464.986 2273.18 464.092 2283.65 464.092C2293.36 464.092 2299.62 465.881 2302.44 469.458C2305.25 472.78 2306.27 476.741 2305.5 481.34C2304.99 485.94 2303.46 490.667 2300.9 495.522C2298.6 500.378 2297.07 504.338 2296.3 507.405C2292.73 521.97 2289.53 535.258 2286.72 547.268C2283.91 559.278 2281.48 571.416 2279.44 583.682C2277.65 595.692 2276.24 608.341 2275.22 621.628C2274.2 634.661 2273.69 649.354 2273.69 665.708C2273.69 687.173 2276.75 703.399 2282.89 714.387C2289.28 725.375 2298.22 730.869 2309.72 730.869C2317.64 730.869 2324.92 727.931 2331.57 722.053C2338.47 716.176 2344.6 708.382 2349.96 698.672C2355.59 688.706 2360.44 677.463 2364.53 664.941C2368.62 652.165 2371.81 638.877 2374.11 625.078V498.589C2374.11 491.178 2373.6 485.812 2372.58 482.49C2371.56 479.168 2371.05 476.102 2371.05 473.291C2371.05 469.458 2372.96 466.392 2376.8 464.092C2380.88 461.536 2385.74 460.259 2391.36 460.259C2404.39 460.259 2414.61 463.708 2422.03 470.608C2429.69 477.252 2433.52 485.301 2433.52 494.756V770.349C2447.83 754.506 2460.99 736.491 2473 716.304C2485.01 696.117 2494.98 672.48 2502.9 645.393ZM2352.26 1034.06C2358.4 1034.06 2363 1031.5 2366.06 1026.39C2369.13 1021.28 2371.17 1015.28 2372.2 1008.38C2373.47 1001.74 2374.11 994.963 2374.11 988.064C2374.11 981.165 2374.11 975.798 2374.11 971.965V888.022C2361.34 900.799 2350.99 915.237 2343.07 931.335C2335.4 947.434 2331.57 967.238 2331.57 990.747C2331.57 1003.01 2333.36 1013.23 2336.93 1021.41C2340.77 1029.84 2345.88 1034.06 2352.26 1034.06Z" fill="#020617"/>
<defs>
<filter id="filter0_d_366_9" x="172" y="187" width="656" height="656" filterUnits="userSpaceOnUse" color-interpolation-filters="sRGB">
<feFlood flood-opacity="0" result="BackgroundImageFix"/>
<feColorMatrix in="SourceAlpha" type="matrix" values="0 0 0 0 0 0 0 0 0 0 0 0 0 0 0 0 0 0 127 0" result="hardAlpha"/>
<feOffset dy="15"/>
<feGaussianBlur stdDeviation="14"/>
<feComposite in2="hardAlpha" operator="out"/>
<feColorMatrix type="matrix" values="0 0 0 0 0.392157 0 0 0 0 0.454902 0 0 0 0 0.545098 0 0 0 0.3 0"/>
<feBlend mode="normal" in2="BackgroundImageFix" result="effect1_dropShadow_366_9"/>
<feBlend mode="normal" in="SourceGraphic" in2="effect1_dropShadow_366_9" result="shape"/>
</filter>
<filter id="filter1_d_366_9" x="328.5" y="343.5" width="344" height="344" filterUnits="userSpaceOnUse" color-interpolation-filters="sRGB">
<feFlood flood-opacity="0" result="BackgroundImageFix"/>
<feColorMatrix in="SourceAlpha" type="matrix" values="0 0 0 0 0 0 0 0 0 0 0 0 0 0 0 0 0 0 127 0" result="hardAlpha"/>
<feOffset dy="15"/>
<feGaussianBlur stdDeviation="14"/>
<feComposite in2="hardAlpha" operator="out"/>
<feColorMatrix type="matrix" values="0 0 0 0 0.392157 0 0 0 0 0.454902 0 0 0 0 0.545098 0 0 0 0.3 0"/>
<feBlend mode="normal" in2="BackgroundImageFix" result="effect1_dropShadow_366_9"/>
<feBlend mode="normal" in="SourceGraphic" in2="effect1_dropShadow_366_9" result="shape"/>
</filter>
<filter id="filter2_d_366_9" x="628.037" y="259.252" width="139.07" height="140.658" filterUnits="userSpaceOnUse" color-interpolation-filters="sRGB">
<feFlood flood-opacity="0" result="BackgroundImageFix"/>
<feColorMatrix in="SourceAlpha" type="matrix" values="0 0 0 0 0 0 0 0 0 0 0 0 0 0 0 0 0 0 127 0" result="hardAlpha"/>
<feOffset dy="15"/>
<feGaussianBlur stdDeviation="14"/>
<feComposite in2="hardAlpha" operator="out"/>
<feColorMatrix type="matrix" values="0 0 0 0 0.392157 0 0 0 0 0.454902 0 0 0 0 0.545098 0 0 0 0.3 0"/>
<feBlend mode="normal" in2="BackgroundImageFix" result="effect1_dropShadow_366_9"/>
<feBlend mode="normal" in="SourceGraphic" in2="effect1_dropShadow_366_9" result="shape"/>
</filter>
<linearGradient id="paint0_linear_366_9" x1="-105.916" y1="1118.82" x2="1131.56" y2="-148.819" gradientUnits="userSpaceOnUse">
<stop stop-color="#1E293B"/>
<stop offset="1" stop-color="#020617"/>
</linearGradient>
</defs>
</svg>
