<svg width="898" height="567" viewBox="0 0 898 567" fill="none" xmlns="http://www.w3.org/2000/svg">
<path d="M235.807 308.039C230.505 316.82 224.872 325.105 218.907 332.892C212.942 340.514 206.646 347.224 200.018 353.023C193.556 358.657 186.846 363.048 179.887 366.196C172.928 369.51 165.803 371.167 158.513 371.167C154.868 371.167 150.974 370.421 146.832 368.93C142.855 367.438 139.127 364.953 135.647 361.474C132.334 358.16 129.517 353.686 127.197 348.053C125.043 342.419 123.966 335.377 123.966 326.927V40.3662C112.534 41.8574 101.681 45.0884 91.4082 50.0591C81.3011 55.0298 72.4367 61.8231 64.8149 70.439C57.3589 79.0549 51.394 89.4933 46.9204 101.754C42.6125 114.015 40.4585 128.182 40.4585 144.254C40.4585 154.527 41.5355 163.805 43.6895 172.09C45.8434 180.209 48.4116 187.168 51.394 192.967C54.3765 198.6 57.3589 202.991 60.3413 206.139C63.3237 209.287 65.6434 210.861 67.3003 210.861C68.7915 210.861 70.1999 210.53 71.5254 209.867C72.8509 209.204 74.1764 208.873 75.502 208.873C78.153 208.873 79.4785 210.944 79.4785 215.086C79.4785 220.389 78.2358 225.525 75.7505 230.496C73.4308 235.301 70.4484 239.277 66.8032 242.425C63.158 245.408 59.1815 247.313 54.8735 248.142C50.5656 248.97 46.589 248.059 42.9438 245.408C38.4702 242.425 33.6652 237.869 28.5288 231.738C23.5581 225.608 18.9188 218.235 14.6108 209.619C10.4686 200.837 6.9891 190.979 4.17236 180.043C1.52132 169.107 0.195801 157.178 0.195801 144.254C0.195801 126.359 2.34977 110.37 6.65771 96.2866C10.9657 82.0373 16.682 69.6105 23.8066 59.0063C31.097 48.4022 39.5472 39.3721 49.1572 31.916C58.7673 24.46 68.8743 18.4123 79.4785 13.7729C90.0827 9.13363 100.853 5.81982 111.788 3.83154C122.724 1.67757 133.162 0.600586 143.104 0.600586C145.755 0.600586 148.323 1.1805 150.808 2.34033C153.293 3.33447 155.447 4.82568 157.27 6.81396C159.093 8.63656 160.584 10.8734 161.744 13.5244C162.903 16.1755 163.483 18.9922 163.483 21.9746V323.945C163.483 327.259 163.98 329.33 164.975 330.158C166.134 330.821 167.211 331.152 168.206 331.152C170.691 331.152 174.088 329.413 178.396 325.933C182.703 322.288 187.343 317.566 192.313 311.767C197.45 305.802 202.586 299.008 207.723 291.387C212.859 283.599 217.498 275.563 221.641 267.279C225.783 258.994 229.18 250.71 231.831 242.425C234.482 234.141 235.807 226.353 235.807 219.063V25.7026C235.807 20.8976 235.476 17.4181 234.813 15.2642C234.15 13.1102 233.819 11.1219 233.819 9.29932C233.819 6.81396 235.062 4.74284 237.547 3.08594C240.198 1.42904 243.346 0.600586 246.991 0.600586C255.441 0.600586 262.318 2.8374 267.62 7.31104C272.922 11.619 275.573 16.9211 275.573 23.2173V243.917C275.573 260.651 275.656 275.149 275.821 287.41C276.153 299.506 276.567 309.944 277.064 318.726C277.561 327.341 278.058 334.632 278.555 340.597C279.052 346.396 279.549 351.367 280.046 355.509C281.041 357 281.538 358.16 281.538 358.988C281.538 360.645 280.709 362.219 279.052 363.71C277.395 365.202 275.324 366.444 272.839 367.438C270.354 368.598 267.537 369.51 264.389 370.172C261.406 370.835 258.507 371.167 255.69 371.167C251.216 371.167 247.737 369.841 245.251 367.19C242.766 364.705 240.861 360.894 239.535 355.757C238.375 350.455 237.547 343.91 237.05 336.123C236.553 328.336 236.139 319.306 235.807 309.033V308.039ZM322.546 187.499C322.546 182.694 322.132 179.215 321.303 177.061C320.64 174.907 320.309 172.918 320.309 171.096C320.309 168.61 321.635 166.622 324.286 165.131C326.937 163.474 330.085 162.646 333.73 162.646C342.18 162.646 348.808 164.882 353.613 169.356C358.583 173.664 361.069 178.883 361.069 185.014V207.879C364.548 200.754 368.276 194.127 372.253 187.996C376.395 181.866 380.786 176.563 385.425 172.09C390.23 167.451 395.284 163.888 400.586 161.403C406.054 158.752 411.936 157.426 418.232 157.426C426.682 157.426 433.641 159 439.109 162.148C444.577 165.297 448.885 169.356 452.033 174.327C455.181 179.297 457.335 184.848 458.495 190.979C459.82 197.109 460.483 203.074 460.483 208.873V314.252C460.483 315.412 460.566 317.317 460.731 319.968C460.897 322.454 461.394 325.022 462.223 327.673C463.051 330.324 464.294 332.644 465.951 334.632C467.773 336.62 470.341 337.614 473.655 337.614C478.792 337.614 483.182 335.792 486.828 332.146C490.639 328.501 493.869 323.945 496.521 318.477C499.337 313.009 501.574 307.127 503.231 300.831C505.054 294.369 506.545 288.321 507.705 282.688C508.699 277.386 510.356 273.575 512.675 271.255C514.995 268.77 517.397 267.527 519.883 267.527C521.871 267.527 523.942 268.19 526.096 269.516C528.25 270.675 530.156 272.25 531.812 274.238C533.635 276.226 535.043 278.463 536.038 280.948C537.197 283.434 537.777 285.919 537.777 288.404C537.777 288.736 537.777 289.15 537.777 289.647C537.777 290.144 537.612 290.89 537.28 291.884C535.126 300.334 532.144 309.198 528.333 318.477C524.688 327.756 519.883 336.289 513.918 344.076C508.119 351.864 501.16 358.326 493.041 363.462C484.922 368.598 475.395 371.167 464.459 371.167C457.666 371.167 451.618 369.841 446.316 367.19C441.18 364.705 436.706 361.308 432.896 357C429.25 352.692 426.434 347.639 424.445 341.839C422.623 336.04 421.711 329.91 421.711 323.448V220.057C421.711 216.081 421.629 212.353 421.463 208.873C421.297 205.394 420.8 202.328 419.972 199.677C419.309 197.026 418.232 194.955 416.741 193.464C415.415 191.807 413.51 190.979 411.024 190.979C407.379 190.979 402.906 193.464 397.604 198.435C392.301 203.405 387.082 209.867 381.946 217.82C376.809 225.773 372.253 234.804 368.276 244.911C364.465 254.852 362.063 264.876 361.069 274.983V349.295C361.069 351.781 360.986 354.349 360.82 357C360.82 359.485 360.323 361.722 359.329 363.71C358.501 365.864 357.092 367.604 355.104 368.93C353.281 370.421 350.548 371.167 346.902 371.167C344.417 371.167 341.683 370.835 338.701 370.172C335.884 369.675 333.233 368.598 330.748 366.941C328.428 365.45 326.44 363.213 324.783 360.231C323.292 357.414 322.546 353.603 322.546 348.798V187.499ZM533.304 112.193C529.161 112.193 525.185 111.364 521.374 109.708C517.729 108.051 514.498 105.814 511.681 102.997C509.03 100.18 506.876 96.9494 505.219 93.3042C503.562 89.4933 502.734 85.4339 502.734 81.126C502.734 76.6523 503.562 72.5101 505.219 68.6992C506.876 64.8883 509.03 61.6574 511.681 59.0063C514.498 56.1896 517.729 54.0356 521.374 52.5444C525.185 50.8875 529.161 50.0591 533.304 50.0591C537.777 50.0591 541.92 50.8875 545.73 52.5444C549.541 54.0356 552.772 56.1896 555.423 59.0063C558.24 61.6574 560.394 64.8883 561.885 68.6992C563.542 72.5101 564.371 76.6523 564.371 81.126C564.371 85.4339 563.542 89.4933 561.885 93.3042C560.394 96.9494 558.24 100.18 555.423 102.997C552.772 105.814 549.541 108.051 545.73 109.708C541.92 111.364 537.777 112.193 533.304 112.193ZM544.985 314.252C544.985 315.412 545.068 317.317 545.233 319.968C545.399 322.454 545.896 325.022 546.725 327.673C547.553 330.324 548.879 332.644 550.701 334.632C552.524 336.62 555.092 337.614 558.406 337.614C563.376 337.614 567.684 335.792 571.33 332.146C575.14 328.501 578.371 323.945 581.022 318.477C583.839 313.009 586.159 307.127 587.981 300.831C589.804 294.369 591.295 288.321 592.455 282.688C593.449 277.552 594.94 273.824 596.929 271.504C599.083 269.184 601.319 267.942 603.639 267.776C606.125 267.444 608.527 268.024 610.847 269.516C613.332 271.007 615.486 272.995 617.309 275.48C619.297 277.8 620.705 280.451 621.534 283.434C622.528 286.416 622.694 289.233 622.031 291.884C619.711 300.334 616.646 309.198 612.835 318.477C609.19 327.756 604.468 336.289 598.668 344.076C592.869 351.864 585.91 358.326 577.792 363.462C569.673 368.598 560.146 371.167 549.21 371.167C542.417 371.167 536.369 369.841 531.067 367.19C525.765 364.705 521.291 361.308 517.646 357C514.001 352.692 511.184 347.639 509.196 341.839C507.373 336.04 506.462 329.91 506.462 323.448V187.499C506.462 182.694 506.048 179.215 505.219 177.061C504.556 174.907 504.225 172.918 504.225 171.096C504.225 168.61 505.551 166.622 508.202 165.131C510.853 163.474 514.001 162.646 517.646 162.646C526.096 162.646 532.724 164.882 537.529 169.356C542.5 173.664 544.985 178.883 544.985 185.014V314.252ZM548.464 117.661C552.275 117.992 556.5 118.241 561.14 118.406C565.116 118.738 569.921 118.986 575.555 119.152C581.188 119.152 587.484 119.235 594.443 119.4V33.1587C594.443 29.5135 594.112 26.6139 593.449 24.46C592.952 22.306 592.372 20.6491 591.709 19.4893C591.212 18.1637 590.632 17.1696 589.97 16.5068C589.473 15.6784 589.224 14.8499 589.224 14.0215C589.224 13.0273 589.721 12.1989 590.715 11.5361C591.709 10.8734 593.035 10.2935 594.692 9.79639C596.349 9.29932 598.089 8.96794 599.911 8.80225C601.899 8.47087 603.805 8.30518 605.627 8.30518C614.078 8.30518 620.705 10.542 625.51 15.0156C630.481 19.3236 632.966 24.5428 632.966 30.6733V119.897C648.541 119.897 664.944 119.732 682.176 119.4C699.574 119.069 716.971 118.489 734.369 117.661C736.688 115.175 738.511 114.264 739.836 114.927C741.328 115.59 742.239 117.164 742.57 119.649C743.067 122.134 743.15 125.2 742.819 128.845C742.487 132.49 741.825 136.052 740.831 139.532C739.836 142.846 738.428 145.745 736.605 148.23C734.949 150.716 733.043 151.958 730.889 151.958C710.509 152.456 692.449 152.787 676.708 152.953C661.134 152.953 646.553 152.953 632.966 152.953V314.252C632.966 322.536 634.54 328.501 637.688 332.146C640.837 335.792 645.062 337.614 650.364 337.614C655.5 337.614 659.891 335.792 663.536 332.146C667.347 328.501 670.578 323.945 673.229 318.477C676.046 313.009 678.283 307.127 679.939 300.831C681.762 294.369 683.253 288.321 684.413 282.688C685.407 277.386 687.064 273.575 689.384 271.255C691.703 268.77 694.106 267.527 696.591 267.527C698.58 267.527 700.651 268.19 702.805 269.516C704.959 270.675 706.864 272.25 708.521 274.238C710.344 276.226 711.752 278.463 712.746 280.948C713.906 283.434 714.486 285.919 714.486 288.404C714.486 288.736 714.486 289.15 714.486 289.647C714.486 290.144 714.32 290.89 713.989 291.884C711.835 300.334 708.852 309.198 705.042 318.477C701.396 327.756 696.591 336.289 690.626 344.076C684.827 351.864 677.868 358.326 669.75 363.462C661.631 368.598 652.104 371.167 641.168 371.167C634.375 371.167 628.078 370.09 622.279 367.936C616.646 365.947 611.758 362.633 607.616 357.994C603.473 353.521 600.243 347.721 597.923 340.597C595.603 333.472 594.443 324.856 594.443 314.749V152.953C588.81 152.953 583.756 152.953 579.283 152.953C574.975 152.787 571.33 152.621 568.347 152.456C564.868 152.29 561.802 152.124 559.151 151.958C555.175 151.958 551.695 150.219 548.713 146.739C545.565 143.094 543.411 139.118 542.251 134.81C540.925 130.502 540.76 126.608 541.754 123.128C542.582 119.483 544.819 117.661 548.464 117.661ZM867.583 282.688C869.075 277.386 870.814 273.575 872.803 271.255C874.791 268.77 877.111 267.527 879.762 267.527C881.75 267.527 883.821 268.19 885.975 269.516C888.129 270.675 890.035 272.25 891.691 274.238C893.514 276.226 894.922 278.463 895.917 280.948C897.076 283.434 897.656 285.919 897.656 288.404C897.656 288.736 897.656 289.398 897.656 290.393C897.656 291.387 897.491 292.381 897.159 293.375C892.851 308.121 887.798 321.211 881.999 332.644C876.365 343.91 870.235 354.018 863.607 362.965C857.145 371.912 850.435 379.865 843.476 386.824C836.517 393.949 829.558 400.494 822.599 406.458V494.44C822.599 507.861 821.025 519.128 817.876 528.241C814.894 537.519 810.917 544.975 805.947 550.609C800.976 556.408 795.343 560.55 789.046 563.036C782.75 565.521 776.371 566.764 769.909 566.764C762.785 566.764 756.24 565.19 750.275 562.042C744.31 559.059 739.091 554.917 734.617 549.615C730.309 544.313 726.913 538.099 724.427 530.975C722.108 523.85 720.948 516.228 720.948 508.109C720.948 495.186 722.605 483.753 725.918 473.812C729.398 463.87 734.037 454.757 739.836 446.473C745.636 438.188 752.346 430.401 759.968 423.11C767.59 415.986 775.625 408.695 784.076 401.239V336.62C777.945 346.893 770.82 355.26 762.702 361.722C754.583 368.35 745.056 371.664 734.12 371.664C725.67 371.664 718.048 369.924 711.255 366.444C704.627 362.965 698.994 358.077 694.354 351.781C689.715 345.319 686.153 337.614 683.667 328.667C681.348 319.554 680.188 309.447 680.188 298.346C680.188 284.925 681.099 271.421 682.922 257.834C684.91 244.248 687.064 231.987 689.384 221.051C692.035 208.293 695.1 195.949 698.58 184.02C699.408 181.866 699.988 179.712 700.319 177.558C700.816 175.238 701.811 173.167 703.302 171.344C704.793 169.522 707.113 168.03 710.261 166.871C713.575 165.711 718.628 165.131 725.421 165.131C731.718 165.131 735.777 166.291 737.6 168.61C739.422 170.764 740.085 173.333 739.588 176.315C739.257 179.297 738.262 182.363 736.605 185.511C735.114 188.659 734.12 191.227 733.623 193.215C731.303 202.66 729.232 211.276 727.41 219.063C725.587 226.85 724.013 234.721 722.688 242.674C721.528 250.461 720.616 258.663 719.954 267.279C719.291 275.729 718.959 285.256 718.959 295.86C718.959 309.778 720.948 320.3 724.924 327.424C729.067 334.549 734.866 338.111 742.322 338.111C747.458 338.111 752.18 336.206 756.488 332.395C760.962 328.584 764.938 323.531 768.418 317.234C772.063 310.772 775.211 303.482 777.862 295.363C780.513 287.079 782.584 278.463 784.076 269.516V187.499C784.076 182.694 783.744 179.215 783.082 177.061C782.419 174.907 782.087 172.918 782.087 171.096C782.087 168.61 783.33 166.622 785.815 165.131C788.466 163.474 791.615 162.646 795.26 162.646C803.71 162.646 810.338 164.882 815.143 169.356C820.113 173.664 822.599 178.883 822.599 185.014V363.71C831.877 353.438 840.41 341.757 848.198 328.667C855.985 315.577 862.447 300.251 867.583 282.688ZM769.909 534.703C773.886 534.703 776.868 533.046 778.856 529.732C780.845 526.418 782.17 522.524 782.833 518.051C783.661 513.743 784.076 509.352 784.076 504.878C784.076 500.405 784.076 496.925 784.076 494.44V440.011C775.791 448.295 769.081 457.657 763.944 468.095C758.974 478.534 756.488 491.375 756.488 506.618C756.488 514.571 757.648 521.199 759.968 526.501C762.453 531.969 765.767 534.703 769.909 534.703Z" fill="#020617"/>
</svg>
